<svg width="168" height="49" viewBox="0 0 168 49" fill="none" xmlns="http://www.w3.org/2000/svg">
<g clip-path="url(#clip0_428_2548)">
<path d="M8.13415 48.2974C7.83765 48.1571 7.27267 47.8403 6.87863 47.5933C5.75858 46.8914 5.44223 46.7567 4.72454 46.6762C3.93304 46.5875 3.6479 46.4034 2.97456 45.5466C2.72797 45.2328 2.26729 44.7701 1.95083 44.5182C0.686706 43.5123 0.415391 42.9572 0.289089 41.118C0.243416 40.4529 0.159686 39.4546 0.103023 38.8994L0 37.8899L0.294784 37.1079C0.993189 35.2551 1.75647 34.0155 2.80808 33.0262C3.68453 32.2017 4.46405 31.779 4.96124 31.8585C5.2709 31.908 5.33698 31.8782 5.73256 31.511C6.34355 30.9439 6.56895 30.8524 7.8741 30.6413C8.51068 30.5383 9.35399 30.3575 9.74811 30.2394C10.1422 30.1213 10.7468 29.9965 11.0917 29.9621C11.4366 29.9277 11.9203 29.8238 12.1666 29.7314C12.4733 29.6162 12.8496 29.5632 13.3605 29.5632C14.2497 29.5631 14.7897 29.3742 16.1281 28.5949L17.0035 28.0852L17.8692 28.1083C18.8625 28.1348 19.1376 28.0589 19.3186 27.7084C19.6555 27.056 19.9099 24.6599 19.7436 23.7052C19.6277 23.0397 19.3069 22.2394 19.0814 22.0532C19.0013 21.987 18.4809 21.8749 17.9249 21.804C17.2032 21.712 16.7858 21.6092 16.4661 21.4447C15.9257 21.1666 15.5222 21.1587 14.6207 21.4085C13.7551 21.6484 13.5848 21.6385 13.116 21.3208C12.7845 21.0962 12.6344 21.0537 12.1719 21.0537C11.8695 21.0537 11.3899 20.9933 11.1062 20.9194C10.4045 20.7366 9.92993 20.7505 9.27084 20.9731C8.60339 21.1985 8.18059 21.5806 8.18059 21.9584C8.18059 22.1099 8.3578 22.5273 8.59661 22.9383L9.01263 23.6543L8.96265 24.5262C8.90244 25.5763 8.57199 26.6969 8.17535 27.1961C7.53915 27.9966 6.93886 28.1864 5.81887 27.9409C5.24257 27.8146 5.01942 27.8041 4.59365 27.8833C4.14943 27.9659 4.00972 27.9561 3.64119 27.8169C3.03553 27.5882 2.25356 27.0404 1.90582 26.6013C1.37631 25.9328 1.01392 24.4388 1.01645 22.9348C1.02011 20.7601 1.75064 19.3728 3.35355 18.4964C3.80834 18.2478 4.26903 17.8737 4.90378 17.2377C5.4005 16.74 5.98225 16.2231 6.19655 16.0889C6.41084 15.9547 6.82942 15.6659 7.12671 15.4471L7.66724 15.0491L9.06597 15.0711C10.1927 15.0888 10.5692 15.0621 11.0021 14.9338C11.2977 14.8462 12.0886 14.7222 12.7596 14.6582C13.9096 14.5486 14.0107 14.5231 14.518 14.2149C15.1145 13.8526 15.3108 13.8275 16.0501 14.0187C16.3281 14.0907 17.0598 14.2116 17.6759 14.2875C19.0484 14.4564 19.2439 14.5108 19.8929 14.904C20.1758 15.0753 20.7902 15.366 21.2582 15.5499C22.0784 15.8721 22.1433 15.9187 23.0536 16.8416C24.2361 18.0403 24.8235 18.8163 25.3264 19.8445C25.8926 21.002 26.0876 21.7293 26.2273 23.2035C26.295 23.9178 26.4182 24.6954 26.5012 24.9315C26.625 25.284 26.6342 25.4311 26.5527 25.7549C26.4257 26.2593 26.4272 26.7198 26.5584 27.4847C26.6444 27.9866 26.6368 28.3214 26.5157 29.345C26.4345 30.0315 26.3233 31.3792 26.2687 32.3399C26.214 33.3006 26.1271 34.2478 26.0755 34.4449C25.9058 35.0927 25.8926 35.8861 26.0429 36.403C26.2458 37.101 26.2197 37.4896 25.9187 38.2517C25.7609 38.6513 25.6522 39.095 25.6504 39.3469C25.6457 39.9917 26.3625 41.7462 26.6805 41.8682C26.7607 41.899 26.9838 41.9242 27.1763 41.9242C27.5059 41.9242 27.5524 41.8883 27.9748 41.3075C28.4781 40.6156 28.8244 40.4014 29.4402 40.4014C30.1687 40.4014 33.2804 40.757 34.3183 40.9589C35.4483 41.1786 35.5393 41.1602 35.7856 40.662C36.0214 40.1848 36.1091 39.6689 36.4449 36.7824C36.8405 33.3815 36.8458 33.2243 36.5778 32.8618C36.377 32.5902 36.3717 32.5386 36.426 31.4076C36.457 30.7626 36.5267 29.6505 36.5808 28.9361C36.6871 27.5332 36.6389 26.1843 36.4321 24.7772C36.2416 23.481 36.2552 22.6567 36.4813 21.7795C36.7828 20.6103 36.7693 20.4922 36.235 19.624C35.6676 18.702 35.6439 18.4082 36.0424 17.2413C36.3356 16.3827 36.3384 16.2371 36.0795 15.3033L35.9131 14.7034L36.1222 14.257C36.3919 13.6813 36.3485 13.4104 35.7836 12.1406C35.5426 11.5991 35.2743 10.9343 35.1874 10.6633C34.919 9.82658 34.7088 9.70893 34.0671 10.0363C33.5843 10.2826 33.2236 10.2612 32.5587 9.94665C31.9066 9.63813 31.7679 9.62237 31.4801 9.82398C31.1823 10.0325 30.646 10.1341 30.3264 10.0424C30.176 9.99928 29.8535 9.80638 29.6098 9.61376C29.3661 9.42113 28.7775 9.0479 28.3018 8.78435C27.2658 8.21045 26.6358 7.60545 26.2606 6.82412C25.7186 5.69569 25.9626 4.34448 26.9784 2.84802C27.6796 1.81514 28.3576 1.12621 28.9779 0.816215C29.683 0.463877 30.0993 0.463831 31.096 0.815982C32.4042 1.27823 33.0452 1.37931 35.6346 1.53171C36.5214 1.5839 37.5291 1.68475 37.8739 1.75582C38.6976 1.92555 38.8266 1.92046 39.5422 1.68999L40.1482 1.49479L40.8025 1.81828C41.7579 2.2906 41.94 2.51652 42.0953 3.42203C42.3512 4.91417 43.1274 7.48992 43.5727 8.32431C43.947 9.02574 43.9305 9.66535 43.5085 10.8156C43.0164 12.1568 43.0219 12.1279 42.9349 13.8175C42.8575 15.3198 42.8375 15.4411 42.5581 16.1016L42.263 16.799V20.4267V24.0544L42.656 25.0315L43.049 26.0085L42.7214 27.0021C42.5412 27.5485 42.3946 28.1506 42.3956 28.3399C42.3965 28.5293 42.5238 29.0912 42.6784 29.5887C42.9592 30.4926 42.9593 30.4939 42.847 31.3751C42.6993 32.5338 42.7099 32.81 42.9284 33.5043C43.1593 34.2382 43.159 34.5273 42.9258 35.6218C42.7838 36.2883 42.7348 36.8567 42.7262 37.9382C42.7136 39.5213 42.8177 40.1953 43.1785 40.8653C43.4343 41.3404 43.4672 41.3567 44.88 41.711C45.7933 41.94 45.9236 41.9527 46.3131 41.8501C46.5488 41.7881 47.0641 41.5261 47.4582 41.268C48.8012 40.3883 48.687 40.4083 51.489 40.5612C53.0153 40.6445 55.0004 40.7044 55.3533 40.6779C55.6317 40.6569 56.0206 39.0608 56.2754 36.8931C56.3777 36.0227 56.5667 34.8198 56.6953 34.2199C56.9456 33.0528 56.941 33.0036 56.5343 32.4976C56.3385 32.2539 56.3379 32.242 56.4445 30.7509C56.5979 28.6069 56.5803 25.7488 56.4038 24.1364L56.2558 22.7851L56.4928 21.7179C56.8175 20.2556 56.8092 20.1476 56.3114 19.3495C55.7855 18.5066 55.7288 18.0973 56.0182 17.2341C56.258 16.5188 56.2901 15.7152 56.1115 14.8998C55.9966 14.3756 56.0005 14.326 56.1802 14.0214C56.4548 13.556 56.4181 13.184 56.0009 12.2039C55.7976 11.726 55.493 10.9723 55.3241 10.5289C54.9461 9.53678 54.8089 9.31972 54.5596 9.31972C54.4525 9.31972 54.2125 9.42534 54.0262 9.55445L53.6875 9.78918L52.9671 9.64402C52.5709 9.56418 52.0278 9.49886 51.7602 9.49886C51.2876 9.49886 51.2661 9.48782 51.0082 9.11303C50.6355 8.57137 50.5816 8.53977 49.8598 8.4398C49.3836 8.37385 49.1116 8.27886 48.8154 8.07502C48.2786 7.7057 47.7997 7.14148 47.5152 6.54296C47.194 5.86754 47.1838 4.66709 47.4908 3.67664C47.7836 2.73193 48.4194 1.54127 48.8975 1.04232C49.3035 0.618567 50.0715 0.185821 50.4205 0.184175C50.5225 0.183694 51.0313 0.343575 51.5511 0.539468C52.0709 0.73536 52.7332 0.919483 53.0227 0.94863C53.3123 0.977777 53.791 1.08894 54.0866 1.19565C54.5637 1.36791 54.7748 1.38677 55.9676 1.36376C57.2294 1.33941 57.3487 1.35197 57.9269 1.5701L58.5425 1.80238L59.34 1.56773L60.1375 1.33308L60.695 1.60387C61.3874 1.94019 61.5339 2.05796 61.6544 2.37497C61.7069 2.51316 61.9889 3.59327 62.281 4.7752C62.7276 6.58229 62.8858 7.07389 63.2752 7.86526C63.7012 8.73112 63.7341 8.84298 63.6858 9.26457C63.657 9.51659 63.4666 10.1662 63.2628 10.7081C62.91 11.646 62.8865 11.771 62.7758 13.3057C62.6728 14.7316 62.6266 15.0059 62.3757 15.6783C62.0341 16.5941 61.9309 17.5454 61.9286 19.7997C61.9263 22.0599 62.0446 23.2569 62.3712 24.2784C62.8017 25.6246 62.8099 26.0325 62.4282 27.0932L62.1083 27.9822L62.4313 28.9275L62.7543 29.8729L62.6925 31.2252C62.6324 32.5378 62.6376 32.5978 62.8693 33.2688L63.108 33.9601L62.8307 35.4117C62.4382 37.4665 62.3735 37.935 62.3728 38.7307C62.3721 39.3807 62.3999 39.4871 62.7424 40.1454C63.1774 40.9814 63.2541 41.0318 64.5781 41.3509C65.6817 41.6169 65.9976 41.6069 67.2072 41.2682C68.1936 40.9919 69.7446 40.8121 70.3888 40.8993C71.2285 41.0129 71.8233 41.4319 72.26 42.2174C72.675 42.964 72.8361 43.7536 72.6893 44.3216C72.4379 45.2939 71.5907 46.6427 71.0291 46.9644C70.9094 47.033 70.4475 47.0769 69.8066 47.0805C68.9922 47.0852 68.5882 47.1361 67.8769 47.3237L66.9773 47.561L66.2646 47.3869C65.2673 47.1433 64.4069 47.0817 63.6472 47.1996C63.1593 47.2753 62.6226 47.2738 61.4977 47.1936C59.0984 47.0225 58.3299 47.041 57.4124 47.2918C56.5478 47.5281 56.5296 47.5265 55.4302 47.1195C54.9266 46.9331 54.8474 46.9275 54.1737 47.0313L53.4546 47.1421L52.8998 46.862C52.5947 46.708 52.2384 46.582 52.1082 46.582C51.9757 46.582 51.6691 46.73 51.4126 46.9179L50.954 47.2538L50.0808 47.2285C49.3813 47.2083 49.0184 47.2498 48.2556 47.4371C47.3481 47.66 47.2674 47.6656 46.53 47.5565C46.0662 47.4879 44.8055 47.4391 43.3827 47.4347C42.0771 47.4307 40.5858 47.3951 40.0685 47.3557C39.163 47.2866 39.0989 47.2939 38.3482 47.5529L37.5684 47.8219L36.915 47.538C36.2921 47.2674 36.2143 47.2552 35.2483 47.2773C34.2476 47.3003 34.227 47.2966 33.5912 46.9826C33.0586 46.7195 32.8856 46.6742 32.5891 46.7196C32.0459 46.803 30.975 47.1087 30.5496 47.3018C30.2567 47.4347 29.9637 47.4742 29.2591 47.4757C28.7576 47.4769 28.0389 47.5206 27.6619 47.573C26.145 47.784 24.9574 47.3502 23.9133 46.2036C23.2049 45.4257 22.6352 45.0142 22.141 44.9236C21.7716 44.8558 21.5725 44.9375 21.0211 45.383C20.8168 45.548 20.1246 45.9399 19.4829 46.2539C18.8411 46.5679 18.1618 46.9457 17.9733 47.0935C17.7848 47.2413 17.5418 47.4087 17.4334 47.4655C17.1913 47.5924 15.0824 47.743 13.5102 47.7458C11.8406 47.7486 11.0475 47.8616 10.0874 48.2332C9.63354 48.4088 9.12969 48.5525 8.96773 48.5525C8.80576 48.5525 8.43065 48.4377 8.13415 48.2974H8.13415ZM11.1171 42.8769C11.8202 42.5246 12.1055 42.4696 13.6721 42.3844C14.9749 42.3136 15.1951 42.2801 15.3078 42.1358C15.3794 42.044 15.6956 41.6062 16.0105 41.1628C16.8045 40.045 16.9865 39.8796 18.6453 38.7701C19.8617 37.9564 20.1311 37.7365 20.2451 37.4634C20.409 37.0713 20.5189 34.438 20.3914 33.9589C20.3465 33.7902 20.2034 33.5727 20.0734 33.4756C19.8378 33.2998 19.8343 33.2998 19.0473 33.4898C18.6129 33.5946 17.7758 33.8235 17.187 33.9984C16.27 34.2708 15.9102 34.3288 14.6789 34.4027C12.1686 34.5534 11.3923 34.7236 9.9663 35.4354C9.54438 35.646 8.75838 36.0062 8.21963 36.2358C7.68088 36.4654 7.14704 36.74 7.03332 36.846C6.73997 37.1194 6.33391 38.0192 6.20524 38.6808C5.8724 40.3925 6.67544 41.8206 8.2238 42.2704C8.60163 42.3802 9.19994 42.6088 9.55337 42.7783C10.3149 43.1436 10.5547 43.1587 11.1171 42.8769V42.8769Z" fill="#B1B1B1"/>
<path d="M98.2557 47.5602C97.7684 47.4166 97.0025 47.255 96.5538 47.201C95.9157 47.1242 95.4449 46.9869 94.3943 46.571C92.6471 45.8793 92.6603 45.8867 92.3399 45.4257C92.1889 45.2085 91.9717 44.917 91.8572 44.7778L91.649 44.5249L91.275 44.7143C91.0692 44.8184 90.0142 45.4982 88.9303 46.2249L86.9597 47.5463L84.5227 47.6531L82.0857 47.7599L81.5455 47.5174C81.0835 47.3101 80.9434 47.2854 80.5787 47.3465C80.3441 47.3859 79.8096 47.4214 79.3908 47.4255C78.7288 47.4319 78.5626 47.4 78.1165 47.181C76.3393 46.3083 73.6178 42.2765 72.4097 38.7265C71.7624 36.8244 71.7645 36.8486 71.727 30.9963C71.7085 28.1143 71.6489 25.1718 71.5946 24.4575C71.4979 23.1851 71.2676 21.7998 71.068 21.2898C70.9685 21.0354 70.9629 21.0337 70.4074 21.0932C69.7032 21.1686 68.7514 21.0208 68.3092 20.7674C67.279 20.177 66.3587 19.204 66.0989 18.4306C65.9311 17.9312 65.9106 16.7524 66.0485 15.545C66.1582 14.5851 66.339 14.261 67.0978 13.6635C68.1454 12.8388 69.2074 12.6862 70.5231 13.1713C71.3202 13.4652 71.8428 13.517 71.9222 13.31C71.9767 13.1682 72.3346 13.0361 72.9005 12.9489C74.6132 12.6851 77.4682 14.4745 78.3353 16.3552C78.5159 16.747 78.5388 16.9303 78.5308 17.9187C78.5224 18.9686 78.5003 19.1025 78.1758 20.0684C77.8569 21.0178 77.8299 21.1757 77.8311 22.0838C77.8326 23.1967 77.9401 23.5622 78.5852 24.6479C79.1004 25.5152 79.1233 25.7521 78.7591 26.4466C78.5965 26.7566 78.405 27.1256 78.3335 27.2664C78.1593 27.6095 77.8867 28.683 77.8155 29.3061C77.7617 29.7767 77.781 29.8516 78.1041 30.4258L78.4503 31.0411L78.4951 34.6324L78.5399 38.2237L78.8928 38.6632C79.8249 39.824 80.8144 40.7296 81.4379 40.9922C81.6626 41.0869 82.2121 41.1461 83.1991 41.1817L84.6336 41.2336L85.293 40.5275C86.4075 39.3341 88.8071 36.1912 89.5899 34.8997C89.9978 34.2266 90.6492 32.5887 90.8788 31.6585L91.0713 30.8787L90.8605 30.1089C90.5687 29.0434 90.5484 28.6565 90.7188 27.4088C90.8836 26.2013 90.8789 26.1562 90.4411 24.7813C90.2413 24.1538 90.1497 23.7194 90.1841 23.5628C90.2135 23.4289 90.4398 23.0924 90.687 22.815C91.2235 22.2132 91.3424 21.8841 91.1715 21.475C90.9882 21.0364 90.7843 20.9011 90.057 20.7357C89.6917 20.6526 89.0066 20.4237 88.5346 20.2271C87.7199 19.8876 87.6399 19.8717 86.9597 19.9131C85.5071 20.0015 84.4347 19.6358 83.5202 18.7404C82.6129 17.852 82.5128 17.3696 83.0284 16.3686C83.5783 15.3008 85.5575 13.1418 86.3633 12.7307C86.8202 12.4976 87.0679 12.4976 88.1027 12.7307C89.2848 12.997 89.9091 12.9976 90.4754 12.7333L90.934 12.5192L91.5444 12.7447C92.279 13.0161 92.4541 13.0453 94.3669 13.2159C96.1339 13.3735 96.7175 13.5519 97.2739 14.1043C97.6824 14.5098 97.7644 14.7459 97.9146 15.9481C97.9669 16.3668 98.0777 17.0521 98.1608 17.4708C98.3469 18.4083 98.3729 22.3582 98.2078 24.6187C98.0981 26.1202 97.9608 26.7855 97.5201 27.9508C97.2935 28.5502 97.2658 28.7385 97.2633 29.6975C97.2612 30.5237 97.3053 30.9382 97.4537 31.4889C97.62 32.1057 97.6541 32.5363 97.6986 34.5792C97.7302 36.0246 97.7107 37.4835 97.6487 38.3098C97.5524 39.595 97.5563 39.6825 97.7216 39.9657C97.9487 40.3545 98.457 40.5431 99.7549 40.7201C101.365 40.9397 102.399 41.3673 102.85 42.0008C103.29 42.6187 103.421 44.463 103.067 45.0614C102.984 45.2021 102.49 45.598 101.969 45.9413C101.449 46.2845 100.66 46.8512 100.217 47.2007C99.7741 47.5501 99.3508 47.8327 99.2766 47.8286C99.2024 47.8246 98.7429 47.7038 98.2557 47.5602Z" fill="#B1B1B1"/>
<path d="M105.901 47.0504C104.725 46.1974 104.074 44.8085 104.314 43.6655C104.614 42.2367 105.516 41.459 106.88 41.4526C107.23 41.451 107.812 41.5031 108.173 41.5684C108.763 41.6747 108.879 41.6707 109.294 41.5297C109.914 41.3189 110.694 40.7821 110.902 40.4236C111.126 40.0369 111.5 38.1771 111.501 37.4455C111.501 37.1253 111.457 36.5038 111.403 36.0643C111.328 35.4475 111.34 34.4469 111.457 31.6753C111.659 26.8714 111.616 21.3167 111.371 20.6607C111.154 20.0774 110.669 19.627 109.63 19.0417C108.271 18.2763 108.436 18.3004 107.468 18.7261C106.523 19.1418 106.122 19.1855 105.499 18.9402C104.075 18.3803 102.724 16.9834 102.247 15.5792C102.143 15.2714 102.13 15.0798 102.194 14.7949C102.492 13.4682 103.512 12.4654 105.029 12.0069C105.649 11.8194 105.802 11.8124 108.567 11.8436C111.351 11.8751 111.471 11.8837 111.834 12.076C112.301 12.3233 112.499 12.3251 113.167 12.088C114.231 11.7108 115.607 11.8702 116.43 12.466C116.868 12.7833 117.043 13.1409 117.468 14.5874C117.818 15.7749 118.129 16.3698 118.442 16.4484C118.897 16.5626 119.269 16.3325 120.845 14.9594C121.687 14.2253 122.333 13.8879 122.896 13.8879C123.282 13.8879 123.37 13.8417 123.996 13.3093C125.116 12.3577 126.237 11.9173 127.54 11.9173C127.991 11.9173 128.402 11.9784 128.745 12.0965C129.031 12.195 129.361 12.2756 129.479 12.2756C129.596 12.2756 129.85 12.195 130.043 12.0965C130.622 11.8013 130.822 11.8517 131.383 12.4332C131.656 12.7169 132.469 13.8173 133.19 14.8784L134.5 16.8078L134.56 17.6543C134.67 19.1848 134.795 20.2772 134.982 21.3224C135.272 22.9483 135.071 23.7522 134.173 24.5589C133.604 25.0706 131.864 26.2561 131.104 26.6504L130.597 26.9134L129.805 26.5487C129.37 26.3481 128.832 26.1095 128.61 26.0185C127.665 25.6305 126.53 24.4477 125.955 23.2508C125.58 22.4721 125.564 21.9496 125.877 20.7203C126.127 19.7415 126.148 19.462 126 19.1371C125.859 18.8257 125.698 18.7891 125.16 18.9454C124.821 19.0439 124.498 19.2486 123.987 19.6889C123.598 20.0232 122.871 20.627 122.371 21.0308C121.335 21.8673 121.034 22.2031 120.63 22.972C119.908 24.3442 119.576 24.8159 118.657 25.7754C117.879 26.5866 117.622 26.9254 117.319 27.5375L116.943 28.2952L117.09 29.3099C117.268 30.5505 117.271 31.4491 117.106 33.997C117.035 35.0808 116.95 36.6937 116.915 37.5812L116.853 39.1949L117.424 39.6944C118.182 40.3572 118.768 40.7676 119.474 41.1314L120.056 41.4315H122.848H125.641L126.119 41.8435C127.376 42.9276 127.45 44.2037 126.341 45.6546C125.799 46.3643 125.177 46.6215 123.348 46.8934C122.097 47.0795 121.072 47.0666 120.18 46.8535C119.527 46.6974 119.415 46.6919 119.211 46.8055C118.386 47.2653 118.484 47.2511 116.115 47.2525L113.875 47.2538L113.349 47.0075C112.724 46.7148 112.455 46.704 111.681 46.9403C110.967 47.1581 110.084 47.17 109.172 46.974C108.512 46.8322 108.477 46.8337 107.737 47.034C106.55 47.3554 106.324 47.3575 105.901 47.0505L105.901 47.0504Z" fill="#B1B1B1"/>
<path d="M150.6 47.7789C148.868 47.6636 148.124 47.3791 147.213 46.4836C146.481 45.7639 146.334 45.6862 145.698 45.6862C144.194 45.6862 142.623 44.9745 140.985 43.5517C140.246 42.9102 140.045 42.5881 139.772 41.6104C139.469 40.5219 139.236 40.0184 138.15 38.111C136.46 35.143 136.31 34.7723 135.83 32.3847C135.387 30.178 135.364 29.8409 135.599 28.9891C135.775 28.3513 135.788 28.1581 135.731 27.0517C135.655 25.5815 135.689 25.4346 136.585 23.3378C136.922 22.5496 137.284 21.5822 137.389 21.1881C137.867 19.3908 138.34 18.3123 139.102 17.2789C139.611 16.5887 139.947 16.3108 140.651 15.9998C141.084 15.8083 141.183 15.7174 141.334 15.3756C141.569 14.8449 141.965 14.5126 144.043 13.1041L145.794 11.9173L146.361 11.9143C147.511 11.9082 148.803 11.7492 148.912 11.6003C148.969 11.5225 149.231 11.3714 149.494 11.2645C149.938 11.0846 150.156 11.068 152.442 11.0397L154.91 11.0092L155.869 11.5119C156.396 11.7884 157.361 12.2083 158.013 12.445C160.101 13.2026 161.694 14.089 162.558 14.9746C162.878 15.3027 163.452 15.7822 163.833 16.0402C164.667 16.6055 164.841 16.8577 165.679 18.7248C166.604 20.7864 166.961 21.9121 166.986 22.8452C167.004 23.5271 167.046 23.6953 167.39 24.4575C167.919 25.6301 167.948 26.0543 167.57 27.0999C167.409 27.5433 167.159 28.2478 167.013 28.6655C166.868 29.0832 166.636 29.587 166.498 29.7851C165.971 30.5428 165.165 31.1482 164.278 31.4534C163.684 31.6576 163.377 31.6625 162.379 31.4832C161.534 31.3315 160.993 31.3621 159.76 31.6314C158.771 31.8476 158.272 31.8458 156.061 31.6183C155.078 31.5171 153.809 31.4279 153.243 31.4202C152.29 31.4072 152.144 31.4289 151.302 31.7106L150.391 32.015L149.549 31.8495C148.752 31.6928 148.659 31.6918 147.817 31.8299C147.174 31.9355 146.654 31.9608 145.937 31.9214C144.991 31.8694 144.921 31.8781 144.401 32.1117C144.101 32.2463 143.743 32.4735 143.606 32.6166L143.357 32.8768L143.52 33.7504C143.865 35.6029 144.344 37.238 144.755 37.969C145.271 38.8862 145.78 39.2526 147 39.5856C147.75 39.7906 147.959 39.8988 148.585 40.4074C149.163 40.8774 149.473 41.0142 150.308 41.1685C151.174 41.3287 151.749 41.5004 152.453 41.8096L152.963 42.0333L154.155 41.7103C154.811 41.5326 155.589 41.3447 155.885 41.2927C156.776 41.136 157.022 41.0268 157.668 40.502C158.425 39.8873 159.277 38.9312 160.297 37.55C161.321 36.1634 161.896 35.4994 162.235 35.3141C162.463 35.1888 162.763 35.1614 163.902 35.1614C165.508 35.1614 165.779 35.2292 166.306 35.7611C167.373 36.8384 167.227 39.0558 165.918 41.6759C165.427 42.6578 165.01 43.256 164.601 43.5626C164.438 43.6851 163.902 43.9525 163.409 44.1568C162.916 44.3611 161.949 44.8445 161.259 45.231C159.634 46.1418 158.242 46.8335 157.197 47.2498C156.482 47.5348 156.293 47.5758 155.899 47.5317C154.415 47.3657 153.815 47.3698 152.883 47.5522C151.799 47.7641 151.23 47.8207 150.6 47.7789V47.7789ZM155.811 25.8001C156.591 25.5941 157.376 25.3885 157.557 25.3432C157.974 25.2384 158.634 24.5792 158.933 23.9675C159.404 23.0056 159.319 21.3492 158.77 20.7846C158.128 20.1238 156.215 19.0775 155.235 18.851C154.903 18.7743 154.329 18.5432 153.959 18.3375C153.314 17.978 153.258 17.9637 152.526 17.9697C151.966 17.9743 151.553 18.0406 150.964 18.2207C149.185 18.7641 148.214 19.2902 147.719 19.9789C147.083 20.8638 147.077 20.8681 146.266 21.0089C144.921 21.2423 144.42 21.6272 143.779 22.921C143.515 23.454 143.432 23.738 143.405 24.1976C143.329 25.5179 143.926 25.7995 146.207 25.5191C146.97 25.4254 147.112 25.4333 147.811 25.6087C148.67 25.8241 149.119 25.8452 149.874 25.7056C150.435 25.6021 150.644 25.6337 151.989 26.0258C153.076 26.3429 153.951 26.2913 155.811 25.8001Z" fill="#B1B1B1"/>
</g>
<defs>
<clipPath id="clip0_428_2548">
<rect width="167.825" height="48.3683" fill="white" transform="translate(0 0.184174)"/>
</clipPath>
</defs>
</svg>
