<svg width="30" height="46" viewBox="0 0 30 46" fill="none" xmlns="http://www.w3.org/2000/svg">
<path d="M12.162 34.039C11.7859 34.039 11.4251 34.1885 11.1591 34.4545C10.8932 34.7204 10.7437 35.0812 10.7437 35.4573C10.7437 35.8335 10.8932 36.1942 11.1591 36.4602C11.4251 36.7262 11.7859 36.8756 12.162 36.8756H17.8352C18.2113 36.8756 18.5721 36.7262 18.8381 36.4602C19.1041 36.1942 19.2535 35.8335 19.2535 35.4573C19.2535 35.0812 19.1041 34.7204 18.8381 34.4545C18.5721 34.1885 18.2113 34.039 17.8352 34.039H12.162ZM6.48885 0C4.98423 0 3.54123 0.597707 2.47731 1.66163C1.41338 2.72556 0.815674 4.16855 0.815674 5.67317V39.7122C0.815674 41.2168 1.41338 42.6598 2.47731 43.7238C3.54123 44.7877 4.98423 45.3854 6.48885 45.3854H23.5084C25.013 45.3854 26.456 44.7877 27.5199 43.7238C28.5838 42.6598 29.1815 41.2168 29.1815 39.7122V5.67317C29.1815 4.16855 28.5838 2.72556 27.5199 1.66163C26.456 0.597707 25.013 0 23.5084 0H6.48885ZM3.65226 5.67317C3.65226 4.92086 3.95112 4.19937 4.48308 3.6674C5.01504 3.13544 5.73654 2.83659 6.48885 2.83659H23.5084C24.2607 2.83659 24.9822 3.13544 25.5141 3.6674C26.0461 4.19937 26.345 4.92086 26.345 5.67317V39.7122C26.345 40.4645 26.0461 41.186 25.5141 41.718C24.9822 42.25 24.2607 42.5488 23.5084 42.5488H6.48885C5.73654 42.5488 5.01504 42.25 4.48308 41.718C3.95112 41.186 3.65226 40.4645 3.65226 39.7122V5.67317Z" fill="#925754"/>
</svg>
