<svg width="46" height="46" viewBox="0 0 46 46" fill="none" xmlns="http://www.w3.org/2000/svg">
<path fill-rule="evenodd" clip-rule="evenodd" d="M29.7878 17.4323C29.9199 17.5641 30.0247 17.7206 30.0962 17.893C30.1677 18.0653 30.2045 18.25 30.2045 18.4366C30.2045 18.6232 30.1677 18.8079 30.0962 18.9802C30.0247 19.1526 29.9199 19.3091 29.7878 19.4408L21.2772 27.9515C21.1454 28.0836 20.9889 28.1884 20.8166 28.2599C20.6443 28.3314 20.4595 28.3682 20.2729 28.3682C20.0864 28.3682 19.9016 28.3314 19.7293 28.2599C19.557 28.1884 19.4005 28.0836 19.2687 27.9515L15.0134 23.6962C14.8815 23.5643 14.7769 23.4077 14.7055 23.2354C14.6341 23.0631 14.5974 22.8784 14.5974 22.6919C14.5974 22.5054 14.6341 22.3207 14.7055 22.1484C14.7769 21.9761 14.8815 21.8195 15.0134 21.6877C15.1453 21.5558 15.3018 21.4512 15.4741 21.3798C15.6465 21.3084 15.8311 21.2717 16.0176 21.2717C16.2041 21.2717 16.3888 21.3084 16.5611 21.3798C16.7334 21.4512 16.89 21.5558 17.0219 21.6877L20.2729 24.9415L27.7793 17.4323C27.9111 17.3002 28.0676 17.1954 28.2399 17.1239C28.4123 17.0524 28.597 17.0156 28.7836 17.0156C28.9701 17.0156 29.1549 17.0524 29.3272 17.1239C29.4995 17.1954 29.6561 17.3002 29.7878 17.4323Z" fill="#925754"/>
<path d="M29.5586 7.12678L26.9459 4.44877L28.9742 2.46863L30.7388 4.27572L33.2636 4.24451C34.3565 4.23158 35.441 4.4373 36.4532 4.84959C37.4654 5.26187 38.385 5.87239 39.1579 6.64524C39.9307 7.4181 40.5412 8.33768 40.9535 9.34993C41.3658 10.3622 41.5715 11.4466 41.5586 12.5395L41.5302 15.0643L43.3345 16.8289C44.1159 17.5925 44.7369 18.5046 45.1608 19.5116C45.5847 20.5185 45.8031 21.6001 45.8031 22.6927C45.8031 23.7853 45.5847 24.8668 45.1608 25.8738C44.7369 26.8808 44.1159 27.7929 43.3345 28.5565L41.5274 30.321L41.5586 32.8459C41.5715 33.9388 41.3658 35.0232 40.9535 36.0355C40.5412 37.0477 39.9307 37.9673 39.1579 38.7401C38.385 39.513 37.4654 40.1235 36.4532 40.5358C35.441 40.9481 34.3565 41.1538 33.2636 41.1409L30.7388 41.1125L28.9742 42.9168C28.2106 43.6982 27.2985 44.3191 26.2916 44.7431C25.2846 45.167 24.203 45.3854 23.1104 45.3854C22.0178 45.3854 20.9363 45.167 19.9293 44.7431C18.9223 44.3191 18.0102 43.6982 17.2466 42.9168L15.4821 41.1097L12.9573 41.1409C11.8643 41.1538 10.7799 40.9481 9.76765 40.5358C8.75541 40.1235 7.83582 39.513 7.06297 38.7401C6.29011 37.9673 5.67959 37.0477 5.26731 36.0355C4.85503 35.0232 4.6493 33.9388 4.66224 32.8459L4.69061 30.321L2.88636 28.5565C2.10491 27.7929 1.48398 26.8808 1.06004 25.8738C0.636109 24.8668 0.417725 23.7853 0.417725 22.6927C0.417725 21.6001 0.636109 20.5185 1.06004 19.5116C1.48398 18.5046 2.10491 17.5925 2.88636 16.8289L4.69345 15.0643L4.66224 12.5395C4.6493 11.4466 4.85503 10.3622 5.26731 9.34993C5.67959 8.33768 6.29011 7.4181 7.06297 6.64524C7.83582 5.87239 8.75541 5.26187 9.76765 4.84959C10.7799 4.4373 11.8643 4.23158 12.9573 4.24451L15.4821 4.27288L17.2466 2.46863C18.0102 1.68719 18.9223 1.06625 19.9293 0.64232C20.9363 0.218384 22.0178 0 23.1104 0C24.203 0 25.2846 0.218384 26.2916 0.64232C27.2985 1.06625 28.2106 1.68719 28.9742 2.46863L26.9459 4.44877C26.4465 3.93753 25.8499 3.53128 25.1912 3.25392C24.5326 2.97656 23.8251 2.83368 23.1104 2.83368C22.3957 2.83368 21.6883 2.97656 21.0296 3.25392C20.3709 3.53128 19.7744 3.93753 19.275 4.44877L16.665 7.12678L12.9204 7.08139C12.206 7.0734 11.4972 7.20827 10.8357 7.47806C10.1741 7.74785 9.5732 8.14713 9.06816 8.65245C8.56311 9.15776 8.16414 9.75891 7.89469 10.4206C7.62525 11.0823 7.49075 11.7911 7.49911 12.5055L7.5445 16.2445L4.86649 18.8572C4.35525 19.3566 3.94901 19.9532 3.67165 20.6119C3.39429 21.2705 3.25141 21.978 3.25141 22.6927C3.25141 23.4074 3.39429 24.1148 3.67165 24.7735C3.94901 25.4322 4.35525 26.0287 4.86649 26.5281L7.5445 29.1381L7.49911 32.8827C7.49113 33.5971 7.62599 34.3059 7.89578 34.9674C8.16558 35.629 8.56486 36.2299 9.07017 36.735C9.57548 37.24 10.1766 37.639 10.8383 37.9084C11.5 38.1779 12.2088 38.3124 12.9232 38.304L16.6622 38.2586L19.275 40.9366C19.7744 41.4479 20.3709 41.8541 21.0296 42.1315C21.6883 42.4088 22.3957 42.5517 23.1104 42.5517C23.8251 42.5517 24.5326 42.4088 25.1912 42.1315C25.8499 41.8541 26.4465 41.4479 26.9459 40.9366L29.5558 38.2586L33.3005 38.304C34.0149 38.312 34.7236 38.1771 35.3852 37.9073C36.0467 37.6375 36.6476 37.2383 37.1527 36.7329C37.6577 36.2276 38.0567 35.6265 38.3261 34.9648C38.5956 34.3031 38.7301 33.5943 38.7217 32.8799L38.6763 29.1409L41.3543 26.5281C41.8656 26.0287 42.2718 25.4322 42.5492 24.7735C42.8266 24.1148 42.9694 23.4074 42.9694 22.6927C42.9694 21.978 42.8266 21.2705 42.5492 20.6119C42.2718 19.9532 41.8656 19.3566 41.3543 18.8572L38.6763 16.2473L38.7217 12.5027C38.7297 11.7883 38.5948 11.0795 38.3251 10.418C38.0553 9.75642 37.656 9.15548 37.1507 8.65043C36.6454 8.14538 36.0442 7.74642 35.3825 7.47697C34.7209 7.20752 34.012 7.07303 33.2976 7.08139L29.5586 7.12678Z" fill="#925754"/>
</svg>
