<svg width="122" height="49" viewBox="0 0 122 49" fill="none" xmlns="http://www.w3.org/2000/svg">
<g clip-path="url(#clip0_428_2555)">
<path d="M10.8217 17.9935C10.8217 23.1829 11.8347 25.6296 14.9322 25.6296C18.1495 25.6296 19.2212 23.0679 19.2212 17.4699C19.2212 12.3466 18.1495 9.84609 15.0618 9.84609C12.0108 9.83386 10.8217 12.3955 10.8217 17.9935ZM4.09094 41.7605C4.09094 45.0953 7.48692 47.2998 13.978 47.2998C20.8874 47.2998 24.4032 45.3425 24.4032 42.1765C24.4032 40.0919 22.7958 38.9591 19.6983 38.663C14.5749 38.1859 10.0535 38.8416 6.65261 37.8287C4.98397 38.7218 4.09094 40.1506 4.09094 41.7605ZM26.9649 17.6363C26.9649 22.5297 22.9744 25.9159 15.2209 26.8089C10.7532 27.286 8.07168 27.7607 8.07168 29.8452C8.07168 31.9885 12.0035 31.6313 18.497 31.8026C25.5923 31.9812 29.2795 33.9458 29.2795 39.0105C29.2795 44.7895 23.7402 48.5525 13.9119 48.5525C5.33385 48.5525 0.748779 45.8611 0.748779 42.059C0.748779 40.7476 1.34332 39.6123 2.47613 38.663C3.3241 37.9998 4.29677 37.5139 5.3363 37.2342C3.61628 36.2212 2.78197 34.6823 2.78197 32.7078C2.78197 28.776 5.87946 26.5716 12.0793 26.2143C6.12168 25.1427 3.02663 22.2825 3.02663 17.9935C3.02663 13.1687 7.55298 9.11943 14.7022 8.75977C15.2306 3.34038 17.9709 0.184174 21.0097 0.184174C22.967 0.184174 24.2858 1.55431 24.2858 3.28166C24.2858 5.30751 22.9157 6.73637 21.0684 6.73637C19.9356 6.73637 19.1625 6.02194 18.2694 6.02194C16.7794 6.02194 16.0674 6.85626 15.8864 8.82094C22.7958 9.17815 26.9649 12.8115 26.9649 17.629V17.6363ZM37.4562 22.6936C37.4562 31.2716 39.5408 35.4995 44.0084 35.4995C48.4761 35.4995 50.6145 31.2716 50.6145 22.6936C50.6145 14.1155 48.4125 9.82652 44.0084 9.82652C39.5506 9.83386 37.4562 14.1302 37.4562 22.6936ZM58.7203 22.6936C58.7203 30.7945 52.7039 36.691 44.006 36.691C35.3081 36.691 29.3626 30.8606 29.3626 22.6936C29.3626 14.5926 35.3179 8.69616 44.0158 8.69616C52.7137 8.69616 58.7301 14.5975 58.7301 22.6936H58.7203ZM69.4343 22.6936C69.4343 31.2716 71.5189 35.4995 75.9865 35.4995C80.4541 35.4995 82.5925 31.2716 82.5925 22.6936C82.5925 14.1155 80.3905 9.82652 75.9865 9.82652C71.5189 9.83386 69.4343 14.1302 69.4343 22.6936ZM90.6983 22.6936C90.6983 30.7945 84.682 36.691 75.9865 36.691C67.291 36.691 61.3333 30.8606 61.3333 22.6936C61.3333 14.5926 67.2886 8.69616 75.9865 8.69616C84.6844 8.69616 90.7008 14.5975 90.7008 22.6936H90.6983ZM107.005 35.2083C111.055 35.2083 114.152 31.0979 114.152 23.5328C114.152 16.5035 110.817 12.3344 107.123 12.3344C105.337 12.3344 103.786 13.11 102.178 14.5975V27.4034C102.178 32.5268 103.49 35.2059 107.003 35.2059L107.005 35.2083ZM102.178 42.0566C102.178 44.5032 102.597 45.8098 104.135 46.2844C105.386 46.7028 106.279 46.5291 106.279 47.2973C106.279 47.7133 105.98 48.0118 105.444 48.0118H91.6966C91.5974 48.0218 91.4973 48.0107 91.4027 47.9792C91.3082 47.9477 91.2214 47.8965 91.1481 47.829C91.0748 47.7615 91.0167 47.6792 90.9775 47.5875C90.9384 47.4959 90.9191 47.397 90.921 47.2973C90.921 46.5829 91.7553 46.7615 92.7682 46.3456C94.3757 45.6899 94.7941 44.6182 94.7941 42.0566V17.8761C94.7941 15.3144 94.2583 14.3602 92.411 13.5871C91.4593 13.1687 90.6837 13.2298 90.6837 12.5741C90.6837 11.5612 94.3781 11.801 102.183 8.8821V12.9314C105.696 10.1324 108.615 8.70105 111.725 8.70105C117.443 8.70105 121.732 13.4672 121.732 20.7338C121.732 29.9651 115.478 36.4586 106.423 36.4586C104.993 36.4493 103.57 36.2485 102.193 35.8616V42.0566H102.178Z" fill="#B1B1B1"/>
</g>
<defs>
<clipPath id="clip0_428_2555">
<rect width="121.289" height="48.3683" fill="white" transform="translate(0.592041 0.184174)"/>
</clipPath>
</defs>
</svg>
