<svg width="102" height="49" viewBox="0 0 102 49" fill="none" xmlns="http://www.w3.org/2000/svg">
<path fill-rule="evenodd" clip-rule="evenodd" d="M4.54651 8.24557V15.6745H8.6903V32.9963H4.54651V39.9027H26.5721V32.9963H22.4283V15.6745H26.5721V8.24557H4.54651ZM27.7294 19.1277V22.5809H30.8279V32.9963H27.7294V39.9027H44.9392V32.9963H41.6503L41.6652 29.6626C41.6764 26.7134 41.6876 26.3028 41.7399 26.0788C42.1841 24.2645 43.375 23.0923 45.1706 22.7078C45.6261 22.607 46.6564 22.6145 47.1417 22.719C48.411 22.9915 49.2286 23.7157 49.5421 24.8394L49.6243 25.1381L49.6467 32.9963H46.4324V39.9027H63.2689V33.127L63.534 33.631C64.7584 35.9791 66.905 37.8532 69.7273 39.0328C72.2546 40.093 75.3755 40.6045 78.5002 40.4701C79.971 40.4066 80.9603 40.2946 82.0653 40.0669C85.4214 39.3725 87.8853 37.786 89.3636 35.3706C90.1215 34.1237 90.7748 32.1564 90.7822 31.0812V30.9804H81.524V31.197C81.524 31.5143 81.4195 32.078 81.2963 32.414C80.8931 33.5264 80.0382 34.2581 78.7652 34.5904C78.3284 34.7061 77.3392 34.7509 76.8128 34.68C76.1259 34.5904 75.4651 34.3403 75.0246 34.0118C74.7857 33.8363 74.4161 33.4555 74.2556 33.2203C73.8412 32.6081 73.55 31.7271 73.4081 30.6445C73.2103 29.1661 73.2551 26.4073 73.4977 25.1007C73.6023 24.537 73.8113 23.9136 74.0353 23.4917C74.5393 22.5435 75.2785 21.991 76.3835 21.7297C76.7568 21.6438 76.8762 21.6326 77.5295 21.6326C78.1716 21.6289 78.2948 21.6401 78.5935 21.7148C80.3033 22.1553 81.1208 23.5291 81.3448 26.3327C81.3672 26.6388 81.3896 26.8964 81.3971 26.9038C81.4008 26.915 82.4312 26.803 88.4042 26.146L90.6404 25.9034C90.7076 25.9034 90.5284 24.7797 90.3342 23.9994C89.3487 20.0647 86.4443 17.3806 82.0093 16.3129C80.3294 15.906 78.6943 15.7679 76.6896 15.8575C74.9275 15.9359 73.6769 16.1113 72.2098 16.4846C67.8794 17.5784 64.7174 19.99 63.2503 23.3088C62.373 25.2986 62.0743 27.7139 62.4103 30.0658C62.541 30.9468 62.8172 31.9772 63.1495 32.7985L63.2316 32.9963H60.4691V28.188C60.4691 23.4021 60.4579 22.9131 60.3347 22.1702C59.8531 19.2509 58.0276 17.2984 54.9627 16.4249C53.951 16.1374 52.9654 15.9918 51.6887 15.9396C48.7656 15.8239 46.4287 16.3465 44.5061 17.5486C43.6848 18.0637 43.0913 18.5603 42.326 19.3666L41.5719 20.1692L41.318 20.4343V15.6745H27.7294V19.1277ZM93.2088 32.2348C92.4173 32.4065 91.8126 32.7238 91.2414 33.2689C90.4126 34.064 89.9871 35.1354 90.0468 36.2778C90.1439 38.1033 91.4243 39.5629 93.2648 39.9437C93.5522 40.0035 94.3586 40.0035 94.646 39.9437C95.9116 39.6824 96.9046 38.9358 97.4571 37.8308C98.2224 36.2964 97.9051 34.4523 96.6694 33.2689C96.0908 32.7163 95.4897 32.4028 94.6834 32.231C94.3548 32.1601 93.5373 32.1638 93.2088 32.2348Z" fill="#B1B1B1"/>
</svg>
