<svg width="47" height="44" viewBox="0 0 47 44" fill="none" xmlns="http://www.w3.org/2000/svg">
<path d="M37.9266 25.613C34.9126 25.6158 31.9615 26.475 29.417 28.0904C26.8725 29.7058 24.8394 32.011 23.5545 34.7373C22.2696 32.011 20.2365 29.7058 17.692 28.0904C15.1475 26.475 12.1964 25.6158 9.18247 25.613H0.861816V27.1258C0.861816 35.8848 7.9877 43.0107 16.7467 43.0107H30.3623C39.1213 43.0107 46.2472 35.8848 46.2472 27.1258V25.613H37.9266ZM16.7467 39.985C10.1676 39.985 4.72676 35.0192 3.97601 28.6387H9.18247C15.7616 28.6387 21.2024 33.6045 21.9532 39.985H16.7467ZM30.3623 39.985H25.1559C25.9066 33.6045 31.3475 28.6387 37.9266 28.6387H43.133C42.3823 35.0192 36.9414 39.985 30.3623 39.985Z" fill="#925754"/>
<path d="M15.3507 21.7143C15.6368 23.4156 16.4485 24.9846 17.6717 26.2011L18.1149 26.6442H18.7415C20.4667 26.649 22.15 26.1135 23.5554 25.1128C24.9606 26.1136 26.644 26.6492 28.3692 26.6445H28.9958L29.439 26.2015C30.6622 24.9849 31.4739 23.4159 31.76 21.7147C33.4613 21.4285 35.0303 20.6169 36.2468 19.3937L36.6899 18.9505V18.3239C36.6948 16.5986 36.1593 14.9151 35.1585 13.5096C36.1593 12.1044 36.6949 10.421 36.6903 8.69576V8.06916L36.2472 7.62599C35.0307 6.40276 33.4617 5.59113 31.7604 5.305C31.4742 3.60371 30.6626 2.03471 29.4394 0.818178L28.9962 0.375104H28.3696C26.6443 0.370231 24.9608 0.905746 23.5554 1.90648C22.1501 0.905676 20.4667 0.370029 18.7415 0.374725H18.1149L17.6717 0.8178C16.4485 2.03433 15.6368 3.60333 15.3507 5.30462C13.6494 5.59075 12.0804 6.40238 10.8639 7.62561L10.4208 8.06878V8.69538C10.4159 10.4207 10.9515 12.1042 11.9522 13.5096C10.9514 14.9149 10.4157 16.5983 10.4204 18.3235V18.9501L10.8635 19.3933C12.0801 20.6166 13.6493 21.4282 15.3507 21.7143ZM14.9975 12.44C14.1584 11.606 13.6254 10.5132 13.4846 9.33862C14.4147 8.6073 15.5644 8.21128 16.7475 8.21467H18.2604V6.70183C18.257 5.51879 18.6529 4.36923 19.3841 3.43919C20.5587 3.57995 21.6514 4.11299 22.4854 4.95203L23.5554 6.02105L24.625 4.95137C25.459 4.11234 26.5518 3.5793 27.7264 3.43852C28.4578 4.36871 28.8538 5.51853 28.8503 6.70183V8.21467H30.3632C31.5462 8.21126 32.6958 8.60718 33.6258 9.33834C33.485 10.5129 32.952 11.6057 32.113 12.4397L31.0439 13.5096L32.1137 14.5794C32.9527 15.4134 33.4858 16.5061 33.6266 17.6807C32.6963 18.4121 31.5465 18.8081 30.3632 18.8046H28.8503V20.3174C28.8537 21.5005 28.4578 22.65 27.7266 23.5801C26.552 23.4393 25.4593 22.9063 24.6253 22.0672L23.5554 20.9982L22.4856 22.0676C21.6516 22.9067 20.5589 23.4397 19.3842 23.5805C18.6529 22.6503 18.2569 21.5006 18.2604 20.3174V18.8046H16.7475C15.5645 18.808 14.4149 18.4121 13.4849 17.6809C13.6257 16.5063 14.1587 15.4136 14.9977 14.5796L16.0668 13.5096L14.9975 12.44Z" fill="#925754"/>
</svg>
