<svg width="34" height="46" viewBox="0 0 34 46" fill="none" xmlns="http://www.w3.org/2000/svg">
<path d="M10.5132 45.3852C10.3312 45.3885 10.1516 45.3419 9.99408 45.2506C9.76931 45.1378 9.58756 44.9547 9.47649 44.7291C9.36541 44.5035 9.3311 44.2477 9.37877 44.0008L12.263 29.5797L0.879926 25.311C0.700465 25.2457 0.540798 25.1353 0.416224 24.9905C0.29165 24.8458 0.206346 24.6714 0.168483 24.4842C0.118698 24.3027 0.117354 24.1113 0.164587 23.9291C0.21182 23.747 0.305978 23.5803 0.437677 23.4459L21.9732 0.372096C22.1428 0.18794 22.3678 0.063959 22.614 0.018867C22.8603 -0.0262251 23.1146 0.0100199 23.3384 0.12213C23.5626 0.240694 23.7432 0.427682 23.8539 0.655911C23.9645 0.88414 23.9995 1.14171 23.9537 1.39119L21.0695 15.7931L32.4526 20.081C32.6301 20.1473 32.7885 20.2563 32.9139 20.3983C33.0392 20.5404 33.1277 20.7112 33.1714 20.8955C33.2151 21.0799 33.2127 21.2722 33.1645 21.4554C33.1163 21.6386 33.0236 21.8072 32.8948 21.9461L11.3593 45.0199C11.1364 45.2484 10.8324 45.3797 10.5132 45.3852ZM3.30267 23.7535L13.9935 27.7722C14.2534 27.8642 14.4709 28.0476 14.6053 28.2883C14.7398 28.5289 14.782 28.8102 14.7242 29.0797L12.4361 40.4628L30.0298 21.6192L19.339 17.6198C19.0791 17.5278 18.8616 17.3444 18.7272 17.1037C18.5927 16.8631 18.5504 16.5818 18.6083 16.3122L20.8964 4.90994L3.30267 23.7535Z" fill="#925754"/>
</svg>
