<svg width="176" height="49" viewBox="0 0 176 49" fill="none" xmlns="http://www.w3.org/2000/svg">
<path d="M31.7829 1.24914V1.72598H35.9156L25.4885 35.2961L13.2494 1.72598H17.2867V1.24914H0.851318V1.72598H5.17474L22.1346 48.1869L36.7262 1.77367H40.6841V1.29682L31.7829 1.24914ZM104.9 0.454388V16.5878H104.518C103.895 13.3926 102.739 10.3247 101.101 7.51174C99.0821 4.23739 95.8554 0.565652 91.5638 0.565652C81.9155 0.565652 81.0254 17.8911 81.0254 24.4081C80.8209 30.3477 81.7099 36.2743 83.6481 41.8925C85.2376 45.7868 87.3357 47.6942 91.3571 47.6942C93.0021 47.7373 94.6319 47.3706 96.0997 46.6269C97.5676 45.8833 98.8274 44.7861 99.7656 43.4343C100.146 42.7118 100.311 41.8955 100.242 41.0819V28.5725H95.9985V28.0957H111.448V28.5725H107.84V47.2014H107.522C107.115 46.443 106.509 45.809 105.771 45.3668C105.032 44.9247 104.187 44.6908 103.326 44.69C101.987 44.7413 100.682 45.1236 99.5271 45.8027L98.4781 46.3749C96.2281 47.5007 93.7605 48.1244 91.2459 48.2028C79.2611 48.2028 72.8713 35.4869 72.8713 24.8372C72.8713 17.0964 75.8278 8.78334 82.0904 3.95128C84.8709 1.64462 88.3351 0.320394 91.9453 0.184174C93.371 0.236103 94.7736 0.559799 96.0779 1.13787L97.0316 1.50345C98.1355 1.97313 99.3143 2.24226 100.513 2.2982C101.969 2.13421 103.336 1.51705 104.423 0.533863H104.804L104.9 0.454388ZM108.555 1.24914H124.927V1.72598H120.604V37.4896C120.604 43.0846 126.374 46.5021 131.412 46.5021C136.848 46.5021 141.426 42.7191 141.426 37.1717V1.72598H136.26V1.24914H175.012V17.8435H174.694C174.217 13.4406 173.359 8.94229 170.339 5.50898C167.319 2.07567 163.123 1.69419 158.863 1.69419H154.253V23.0411C155.204 23.142 156.159 23.1951 157.115 23.2001C162.916 23.2001 164.426 19.2263 164.665 14.2989H165.094V33.0072H164.665C163.933 28.5567 161.962 23.7405 156.717 23.7405C155.891 23.7405 155.128 23.7405 154.253 23.8676V46.6928H161.152C164.78 46.6377 168.247 45.1859 170.832 42.6396C173.02 40.4912 174.482 37.7124 175.012 34.6921C175.285 33.0139 175.455 31.3205 175.521 29.6216H175.886V47.1061H142.666V46.6292H146.528V1.6783H142.141V37.283C142.141 44.6423 135.148 47.9008 128.599 47.9008C121.192 47.9008 113.022 44.3085 113.022 35.8206V1.6783H108.508V1.20145L108.555 1.24914ZM63.3661 24.3445C63.3661 17.6368 60.9819 0.883551 51.9218 0.883551C42.8617 0.883551 40.4774 17.6845 40.4774 24.3445C40.4774 31.0045 42.8617 47.869 51.9218 47.869C60.9819 47.869 63.3661 31.0998 63.3661 24.3445ZM51.8105 48.5525C49.0845 48.4439 46.415 47.742 43.9882 46.4957C41.5614 45.2493 39.4357 43.4886 37.7594 41.3362C33.9965 36.4802 32.0006 30.487 32.1008 24.3445C32.0283 18.4677 33.8817 12.7287 37.3779 8.00449C39.0712 5.67224 41.2742 3.75702 43.8192 2.4046C46.3643 1.05218 49.1844 0.298207 52.0648 0.200069C54.7666 0.319775 57.4099 1.02579 59.8116 2.26915C62.2132 3.5125 64.3156 5.26343 65.9729 7.40048C69.7495 12.2417 71.7724 18.2207 71.711 24.3604C71.7638 30.2269 69.9059 35.9513 66.418 40.6686C64.7471 43.0112 62.5617 44.9398 60.0296 46.3064C57.4974 47.6731 54.6858 48.4414 51.8105 48.5525Z" fill="#B1B1B1"/>
</svg>
